<svg width="28" height="28" viewBox="0 0 28 28" fill="none" xmlns="http://www.w3.org/2000/svg">
<path d="M11.9258 24.1113C12.0575 24.5601 12.331 24.954 12.7054 25.2343C13.0798 25.5146 13.5349 25.6661 14.0025 25.6661C14.4702 25.6661 14.9253 25.5146 15.2996 25.2343C15.674 24.954 15.9475 24.5601 16.0793 24.1113" stroke="current" stroke-width="2.33333" stroke-linecap="round" stroke-linejoin="round"/>
<path d="M13.999 4.66545V2.33203" stroke="current" stroke-width="2.33333" stroke-linecap="round" stroke-linejoin="round"/>
<path d="M13.9997 4.66602C16.0626 4.66602 18.041 5.48549 19.4996 6.94416C20.9583 8.40283 21.7778 10.3812 21.7778 12.4441C21.7778 19.7513 23.3334 21 23.3334 21H4.66602C4.66602 21 6.22163 19.0129 6.22163 12.4441C6.22163 10.3812 7.0411 8.40283 8.49977 6.94416C9.95845 5.48549 11.9368 4.66602 13.9997 4.66602V4.66602Z" stroke="current" stroke-width="2.33333" stroke-linecap="round" stroke-linejoin="round"/>
</svg>
