<svg width="24" height="24" viewBox="0 0 24 24" fill="none" xmlns="http://www.w3.org/2000/svg">
<path d="M11.7496 5.14125C11.0753 5.13278 10.4029 5.21347 9.74974 5.38124C6.83699 6.11098 4.02735 8.38732 2.13144 10.7054C1.88497 11.0188 1.75098 11.4058 1.75098 11.8045C1.75098 12.2031 1.88497 12.5902 2.13144 12.9035C3.99801 15.1825 6.80055 17.4989 9.75329 18.2366C10.4055 18.4027 11.0767 18.4825 11.7496 18.4739C12.4238 18.4828 13.0962 18.403 13.7495 18.2366C16.7023 17.5016 19.5075 15.1843 21.3705 12.9035C21.617 12.5902 21.751 12.2031 21.751 11.8045C21.751 11.4058 21.617 11.0188 21.3705 10.7054C19.4737 8.38643 16.6596 6.11009 13.7495 5.38035C13.0963 5.21302 12.4239 5.13263 11.7496 5.14125V5.14125Z" stroke="current" stroke-width="2" stroke-linecap="round" stroke-linejoin="round"/>
<circle cx="11.7504" cy="11.5561" r="1.9428" stroke="current" stroke-width="2" stroke-linecap="round" stroke-linejoin="round"/>
</svg>
