<svg width="28" height="28" viewBox="0 0 28 28" fill="none" xmlns="http://www.w3.org/2000/svg">
<path d="M25.2738 10.8346L14.0048 2.33203L2.72538 10.8346C2.4922 11.0498 2.35199 11.3473 2.33447 11.6641V24.6482C2.33529 24.9169 2.4424 25.1743 2.6324 25.3643C2.8224 25.5543 3.07986 25.6614 3.34856 25.6623H10.1112V20.2216C10.1112 19.1904 10.5209 18.2014 11.2501 17.4722C11.9793 16.7429 12.9683 16.3333 13.9996 16.3333C15.0308 16.3333 16.0199 16.7429 16.7491 17.4722C17.4783 18.2014 17.888 19.1904 17.888 20.2216V25.6654H24.6496C24.9184 25.6645 25.1759 25.5575 25.3661 25.3675C25.5563 25.1775 25.6636 24.9201 25.6647 24.6513V11.6641C25.6467 11.3474 25.5066 11.05 25.2738 10.8346Z" stroke="current" stroke-width="2.33333" stroke-linecap="round" stroke-linejoin="round"/>
</svg>
