<svg width="100%" height="100%" viewBox="0 0 16 17" fill="none" xmlns="http://www.w3.org/2000/svg">
<path d="M8.00065 15.1667C11.6825 15.1667 14.6673 12.1819 14.6673 8.50004C14.6673 4.81814 11.6825 1.83337 8.00065 1.83337C4.31875 1.83337 1.33398 4.81814 1.33398 8.50004C1.33398 12.1819 4.31875 15.1667 8.00065 15.1667Z" stroke="current" stroke-width="1.33333" stroke-linecap="round" stroke-linejoin="round"/>
<path d="M8.00098 11.8333V8.5" stroke="current" stroke-width="1.33333" stroke-linecap="round" stroke-linejoin="round"/>
<path d="M8.00104 5.38672C7.92686 5.38672 7.85434 5.40872 7.79266 5.44993C7.73099 5.49114 7.68291 5.54972 7.65453 5.61825C7.62614 5.68679 7.61871 5.7622 7.63318 5.83495C7.64766 5.90771 7.68338 5.97454 7.73583 6.02699C7.78828 6.07944 7.85511 6.11516 7.92787 6.12964C8.00062 6.14411 8.07603 6.13668 8.14457 6.10829C8.2131 6.07991 8.27168 6.03183 8.31289 5.97015C8.3541 5.90848 8.3761 5.83596 8.3761 5.76178C8.37623 5.71249 8.36662 5.66366 8.34782 5.6181C8.32902 5.57253 8.30139 5.53113 8.26654 5.49628C8.23169 5.46143 8.19029 5.4338 8.14472 5.415C8.09916 5.3962 8.05033 5.38659 8.00104 5.38672Z" fill="current" stroke="current" stroke-width="1.33333" stroke-linecap="round" stroke-linejoin="round"/>
</svg>
