<svg width="29" height="29" viewBox="0 0 29 29" fill="none" xmlns="http://www.w3.org/2000/svg">
<mask id="mask0_965_25205" style="mask-type:alpha" maskUnits="userSpaceOnUse" x="0" y="0" width="29" height="29">
<rect x="0.0996094" y="0.100098" width="28.8" height="28.8" fill="#D9D9D9"/>
</mask>
<g mask="url(#mask0_965_25205)">
<path d="M3.70117 12.1017V4.90166C3.70117 4.56166 3.81617 4.27666 4.04617 4.04666C4.27617 3.81666 4.56117 3.70166 4.90117 3.70166H12.1012C12.4412 3.70166 12.7262 3.81666 12.9562 4.04666C13.1862 4.27666 13.3012 4.56166 13.3012 4.90166V12.1017C13.3012 12.4417 13.1862 12.7267 12.9562 12.9567C12.7262 13.1867 12.4412 13.3017 12.1012 13.3017H4.90117C4.56117 13.3017 4.27617 13.1867 4.04617 12.9567C3.81617 12.7267 3.70117 12.4417 3.70117 12.1017ZM6.10117 10.9017H10.9012V6.10166H6.10117V10.9017ZM3.70117 24.1017V16.9017C3.70117 16.5617 3.81617 16.2767 4.04617 16.0467C4.27617 15.8167 4.56117 15.7017 4.90117 15.7017H12.1012C12.4412 15.7017 12.7262 15.8167 12.9562 16.0467C13.1862 16.2767 13.3012 16.5617 13.3012 16.9017V24.1017C13.3012 24.4417 13.1862 24.7267 12.9562 24.9567C12.7262 25.1867 12.4412 25.3017 12.1012 25.3017H4.90117C4.56117 25.3017 4.27617 25.1867 4.04617 24.9567C3.81617 24.7267 3.70117 24.4417 3.70117 24.1017ZM6.10117 22.9017H10.9012V18.1017H6.10117V22.9017ZM15.7012 12.1017V4.90166C15.7012 4.56166 15.8162 4.27666 16.0462 4.04666C16.2762 3.81666 16.5612 3.70166 16.9012 3.70166H24.1012C24.4412 3.70166 24.7262 3.81666 24.9562 4.04666C25.1862 4.27666 25.3012 4.56166 25.3012 4.90166V12.1017C25.3012 12.4417 25.1862 12.7267 24.9562 12.9567C24.7262 13.1867 24.4412 13.3017 24.1012 13.3017H16.9012C16.5612 13.3017 16.2762 13.1867 16.0462 12.9567C15.8162 12.7267 15.7012 12.4417 15.7012 12.1017ZM18.1012 10.9017H22.9012V6.10166H18.1012V10.9017ZM22.9012 25.3017V22.9017H25.3012V25.3017H22.9012ZM15.7012 18.1017V15.7017H18.1012V18.1017H15.7012ZM18.1012 20.5017V18.1017H20.5012V20.5017H18.1012ZM15.7012 22.9017V20.5017H18.1012V22.9017H15.7012ZM18.1012 25.3017V22.9017H20.5012V25.3017H18.1012ZM20.5012 22.9017V20.5017H22.9012V22.9017H20.5012ZM20.5012 18.1017V15.7017H22.9012V18.1017H20.5012ZM22.9012 20.5017V18.1017H25.3012V20.5017H22.9012Z" fill="#363636"/>
</g>
</svg>
