<svg width="28" height="28" viewBox="0 0 28 28" fill="none" xmlns="http://www.w3.org/2000/svg">
<path d="M3.79102 25.6647V24.2064C3.79102 22.8658 4.05506 21.5384 4.56808 20.2998C5.0811 19.0613 5.83304 17.9359 6.78097 16.988C7.7289 16.0401 8.85426 15.2881 10.0928 14.7751C11.3313 14.2621 12.6588 13.998 13.9993 13.998C15.3399 13.998 16.6674 14.2621 17.9059 14.7751C19.1444 15.2881 20.2698 16.0401 21.2177 16.988C22.1657 17.9359 22.9176 19.0613 23.4306 20.2998C23.9436 21.5384 24.2077 22.8658 24.2077 24.2064V25.6647" stroke="current" stroke-width="2.33333" stroke-linecap="round" stroke-linejoin="round"/>
<path d="M13.9993 13.9987C15.5464 13.9987 17.0302 13.3841 18.1241 12.2902C19.2181 11.1962 19.8327 9.71246 19.8327 8.16537C19.8327 6.61827 19.2181 5.13454 18.1241 4.04057C17.0302 2.94661 15.5464 2.33203 13.9993 2.33203C12.4523 2.33203 10.9685 2.94661 9.87456 4.04057C8.7806 5.13454 8.16602 6.61827 8.16602 8.16537C8.16602 9.71246 8.7806 11.1962 9.87456 12.2902C10.9685 13.3841 12.4523 13.9987 13.9993 13.9987V13.9987Z" stroke="current" stroke-width="2.33333" stroke-linecap="round" stroke-linejoin="round"/>
</svg>
